<mxfile host="app.diagrams.net" modified="2022-03-25T08:07:42.769Z" agent="5.0 (Macintosh; Intel Mac OS X 10_15_7) AppleWebKit/537.36 (KHTML, like Gecko) Chrome/99.0.4844.83 Safari/537.36" etag="H6pPmv8zVlYe2Y4fyLRC" version="16.6.3" type="github">
  <diagram id="C5RBs43oDa-KdzZeNtuy" name="Page-1">
    <mxGraphModel dx="946" dy="481" grid="1" gridSize="10" guides="1" tooltips="1" connect="1" arrows="1" fold="1" page="1" pageScale="1" pageWidth="827" pageHeight="1169" math="0" shadow="0">
      <root>
        <mxCell id="WIyWlLk6GJQsqaUBKTNV-0" />
        <mxCell id="WIyWlLk6GJQsqaUBKTNV-1" parent="WIyWlLk6GJQsqaUBKTNV-0" />
        <mxCell id="3B7Y6es03bZ_iijwkZP5-0" value="&lt;font style=&quot;font-size: 18px&quot;&gt;0&lt;/font&gt;" style="text;html=1;strokeColor=none;fillColor=none;align=center;verticalAlign=middle;whiteSpace=wrap;rounded=0;" parent="WIyWlLk6GJQsqaUBKTNV-1" vertex="1">
          <mxGeometry x="120" y="160" width="40" height="40" as="geometry" />
        </mxCell>
        <mxCell id="3B7Y6es03bZ_iijwkZP5-1" value="&lt;font style=&quot;font-size: 18px&quot;&gt;1&lt;/font&gt;" style="text;html=1;strokeColor=none;fillColor=none;align=center;verticalAlign=middle;whiteSpace=wrap;rounded=0;" parent="WIyWlLk6GJQsqaUBKTNV-1" vertex="1">
          <mxGeometry x="160" y="160" width="40" height="40" as="geometry" />
        </mxCell>
        <mxCell id="3B7Y6es03bZ_iijwkZP5-2" value="&lt;font style=&quot;font-size: 18px&quot;&gt;2&lt;/font&gt;" style="text;html=1;strokeColor=none;fillColor=none;align=center;verticalAlign=middle;whiteSpace=wrap;rounded=0;" parent="WIyWlLk6GJQsqaUBKTNV-1" vertex="1">
          <mxGeometry x="200" y="160" width="40" height="40" as="geometry" />
        </mxCell>
        <mxCell id="3B7Y6es03bZ_iijwkZP5-3" value="&lt;font style=&quot;font-size: 18px&quot;&gt;3&lt;/font&gt;" style="text;html=1;strokeColor=none;fillColor=none;align=center;verticalAlign=middle;whiteSpace=wrap;rounded=0;" parent="WIyWlLk6GJQsqaUBKTNV-1" vertex="1">
          <mxGeometry x="240" y="160" width="40" height="40" as="geometry" />
        </mxCell>
        <mxCell id="3B7Y6es03bZ_iijwkZP5-4" value="&lt;font style=&quot;font-size: 18px&quot;&gt;508&lt;/font&gt;" style="text;html=1;strokeColor=none;fillColor=none;align=center;verticalAlign=middle;whiteSpace=wrap;rounded=0;" parent="WIyWlLk6GJQsqaUBKTNV-1" vertex="1">
          <mxGeometry x="560" y="160" width="40" height="40" as="geometry" />
        </mxCell>
        <mxCell id="3B7Y6es03bZ_iijwkZP5-5" value="&lt;font style=&quot;font-size: 18px&quot;&gt;509&lt;/font&gt;" style="text;html=1;strokeColor=none;fillColor=none;align=center;verticalAlign=middle;whiteSpace=wrap;rounded=0;" parent="WIyWlLk6GJQsqaUBKTNV-1" vertex="1">
          <mxGeometry x="600" y="160" width="40" height="40" as="geometry" />
        </mxCell>
        <mxCell id="3B7Y6es03bZ_iijwkZP5-6" value="&lt;font style=&quot;font-size: 18px&quot;&gt;510&lt;/font&gt;" style="text;html=1;strokeColor=none;fillColor=none;align=center;verticalAlign=middle;whiteSpace=wrap;rounded=0;" parent="WIyWlLk6GJQsqaUBKTNV-1" vertex="1">
          <mxGeometry x="640" y="160" width="40" height="40" as="geometry" />
        </mxCell>
        <mxCell id="3B7Y6es03bZ_iijwkZP5-7" value="&lt;font style=&quot;font-size: 18px&quot;&gt;511&lt;/font&gt;" style="text;html=1;strokeColor=none;fillColor=none;align=center;verticalAlign=middle;whiteSpace=wrap;rounded=0;" parent="WIyWlLk6GJQsqaUBKTNV-1" vertex="1">
          <mxGeometry x="680" y="160" width="40" height="40" as="geometry" />
        </mxCell>
        <mxCell id="3B7Y6es03bZ_iijwkZP5-8" value="&lt;font style=&quot;font-size: 18px&quot;&gt;0&lt;/font&gt;" style="text;html=1;strokeColor=none;fillColor=none;align=center;verticalAlign=middle;whiteSpace=wrap;rounded=0;" parent="WIyWlLk6GJQsqaUBKTNV-1" vertex="1">
          <mxGeometry x="80" y="200" width="40" height="40" as="geometry" />
        </mxCell>
        <mxCell id="3B7Y6es03bZ_iijwkZP5-9" value="&lt;font style=&quot;font-size: 18px&quot;&gt;1&lt;/font&gt;" style="text;html=1;strokeColor=none;fillColor=none;align=center;verticalAlign=middle;whiteSpace=wrap;rounded=0;" parent="WIyWlLk6GJQsqaUBKTNV-1" vertex="1">
          <mxGeometry x="80" y="240" width="40" height="40" as="geometry" />
        </mxCell>
        <mxCell id="3B7Y6es03bZ_iijwkZP5-10" value="&lt;font style=&quot;font-size: 18px&quot;&gt;2&lt;/font&gt;" style="text;html=1;strokeColor=none;fillColor=none;align=center;verticalAlign=middle;whiteSpace=wrap;rounded=0;" parent="WIyWlLk6GJQsqaUBKTNV-1" vertex="1">
          <mxGeometry x="80" y="280" width="40" height="40" as="geometry" />
        </mxCell>
        <mxCell id="3B7Y6es03bZ_iijwkZP5-11" value="&lt;font style=&quot;font-size: 18px&quot;&gt;3&lt;/font&gt;" style="text;html=1;strokeColor=none;fillColor=none;align=center;verticalAlign=middle;whiteSpace=wrap;rounded=0;" parent="WIyWlLk6GJQsqaUBKTNV-1" vertex="1">
          <mxGeometry x="80" y="320" width="40" height="40" as="geometry" />
        </mxCell>
        <mxCell id="3B7Y6es03bZ_iijwkZP5-12" value="&lt;font style=&quot;font-size: 18px&quot;&gt;507&lt;/font&gt;" style="text;html=1;strokeColor=none;fillColor=none;align=center;verticalAlign=middle;whiteSpace=wrap;rounded=0;" parent="WIyWlLk6GJQsqaUBKTNV-1" vertex="1">
          <mxGeometry x="80" y="440" width="40" height="40" as="geometry" />
        </mxCell>
        <mxCell id="3B7Y6es03bZ_iijwkZP5-13" value="&lt;font style=&quot;font-size: 18px&quot;&gt;508&lt;/font&gt;" style="text;html=1;strokeColor=none;fillColor=none;align=center;verticalAlign=middle;whiteSpace=wrap;rounded=0;" parent="WIyWlLk6GJQsqaUBKTNV-1" vertex="1">
          <mxGeometry x="80" y="480" width="40" height="40" as="geometry" />
        </mxCell>
        <mxCell id="3B7Y6es03bZ_iijwkZP5-14" value="&lt;font style=&quot;font-size: 18px&quot;&gt;509&lt;/font&gt;" style="text;html=1;strokeColor=none;fillColor=none;align=center;verticalAlign=middle;whiteSpace=wrap;rounded=0;" parent="WIyWlLk6GJQsqaUBKTNV-1" vertex="1">
          <mxGeometry x="80" y="520" width="40" height="40" as="geometry" />
        </mxCell>
        <mxCell id="3B7Y6es03bZ_iijwkZP5-15" value="&lt;font style=&quot;font-size: 18px&quot;&gt;510&lt;/font&gt;" style="text;html=1;strokeColor=none;fillColor=none;align=center;verticalAlign=middle;whiteSpace=wrap;rounded=0;" parent="WIyWlLk6GJQsqaUBKTNV-1" vertex="1">
          <mxGeometry x="80" y="560" width="40" height="40" as="geometry" />
        </mxCell>
        <mxCell id="3B7Y6es03bZ_iijwkZP5-16" value="&lt;font style=&quot;font-size: 18px&quot;&gt;511&lt;/font&gt;" style="text;html=1;strokeColor=none;fillColor=none;align=center;verticalAlign=middle;whiteSpace=wrap;rounded=0;" parent="WIyWlLk6GJQsqaUBKTNV-1" vertex="1">
          <mxGeometry x="80" y="600" width="40" height="40" as="geometry" />
        </mxCell>
        <mxCell id="3B7Y6es03bZ_iijwkZP5-17" value="" style="group" parent="WIyWlLk6GJQsqaUBKTNV-1" vertex="1" connectable="0">
          <mxGeometry x="120" y="200" width="600" height="540" as="geometry" />
        </mxCell>
        <mxCell id="3B7Y6es03bZ_iijwkZP5-18" value="" style="rounded=0;whiteSpace=wrap;html=1;fillColor=none;" parent="3B7Y6es03bZ_iijwkZP5-17" vertex="1">
          <mxGeometry width="600" height="440" as="geometry" />
        </mxCell>
        <mxCell id="3B7Y6es03bZ_iijwkZP5-19" value="" style="endArrow=none;html=1;rounded=0;" parent="3B7Y6es03bZ_iijwkZP5-17" edge="1">
          <mxGeometry width="50" height="50" relative="1" as="geometry">
            <mxPoint y="40" as="sourcePoint" />
            <mxPoint x="600" y="40" as="targetPoint" />
          </mxGeometry>
        </mxCell>
        <mxCell id="3B7Y6es03bZ_iijwkZP5-20" value="" style="endArrow=none;html=1;rounded=0;" parent="3B7Y6es03bZ_iijwkZP5-17" edge="1">
          <mxGeometry width="50" height="50" relative="1" as="geometry">
            <mxPoint y="80" as="sourcePoint" />
            <mxPoint x="600" y="80" as="targetPoint" />
          </mxGeometry>
        </mxCell>
        <mxCell id="3B7Y6es03bZ_iijwkZP5-21" value="" style="endArrow=none;html=1;rounded=0;" parent="3B7Y6es03bZ_iijwkZP5-17" edge="1">
          <mxGeometry width="50" height="50" relative="1" as="geometry">
            <mxPoint y="120" as="sourcePoint" />
            <mxPoint x="600" y="120" as="targetPoint" />
          </mxGeometry>
        </mxCell>
        <mxCell id="3B7Y6es03bZ_iijwkZP5-22" value="" style="endArrow=none;html=1;rounded=0;" parent="3B7Y6es03bZ_iijwkZP5-17" edge="1">
          <mxGeometry width="50" height="50" relative="1" as="geometry">
            <mxPoint y="160" as="sourcePoint" />
            <mxPoint x="600" y="160" as="targetPoint" />
          </mxGeometry>
        </mxCell>
        <mxCell id="3B7Y6es03bZ_iijwkZP5-23" value="" style="endArrow=none;html=1;rounded=0;" parent="3B7Y6es03bZ_iijwkZP5-17" edge="1">
          <mxGeometry width="50" height="50" relative="1" as="geometry">
            <mxPoint y="200" as="sourcePoint" />
            <mxPoint x="600" y="200" as="targetPoint" />
          </mxGeometry>
        </mxCell>
        <mxCell id="3B7Y6es03bZ_iijwkZP5-24" value="" style="endArrow=none;html=1;rounded=0;" parent="3B7Y6es03bZ_iijwkZP5-17" edge="1">
          <mxGeometry width="50" height="50" relative="1" as="geometry">
            <mxPoint y="240" as="sourcePoint" />
            <mxPoint x="600" y="240" as="targetPoint" />
          </mxGeometry>
        </mxCell>
        <mxCell id="3B7Y6es03bZ_iijwkZP5-25" value="" style="endArrow=none;html=1;rounded=0;" parent="3B7Y6es03bZ_iijwkZP5-17" edge="1">
          <mxGeometry width="50" height="50" relative="1" as="geometry">
            <mxPoint y="280" as="sourcePoint" />
            <mxPoint x="600" y="280" as="targetPoint" />
          </mxGeometry>
        </mxCell>
        <mxCell id="3B7Y6es03bZ_iijwkZP5-26" value="" style="endArrow=none;html=1;rounded=0;" parent="3B7Y6es03bZ_iijwkZP5-17" edge="1">
          <mxGeometry width="50" height="50" relative="1" as="geometry">
            <mxPoint y="320" as="sourcePoint" />
            <mxPoint x="600" y="320" as="targetPoint" />
          </mxGeometry>
        </mxCell>
        <mxCell id="3B7Y6es03bZ_iijwkZP5-27" value="" style="endArrow=none;html=1;rounded=0;" parent="3B7Y6es03bZ_iijwkZP5-17" edge="1">
          <mxGeometry width="50" height="50" relative="1" as="geometry">
            <mxPoint y="359.20000000000005" as="sourcePoint" />
            <mxPoint x="600" y="359.20000000000005" as="targetPoint" />
          </mxGeometry>
        </mxCell>
        <mxCell id="3B7Y6es03bZ_iijwkZP5-28" value="" style="endArrow=none;html=1;rounded=0;" parent="3B7Y6es03bZ_iijwkZP5-17" edge="1">
          <mxGeometry width="50" height="50" relative="1" as="geometry">
            <mxPoint x="40" y="440" as="sourcePoint" />
            <mxPoint x="40" as="targetPoint" />
          </mxGeometry>
        </mxCell>
        <mxCell id="3B7Y6es03bZ_iijwkZP5-29" value="" style="endArrow=none;html=1;rounded=0;" parent="3B7Y6es03bZ_iijwkZP5-17" edge="1">
          <mxGeometry width="50" height="50" relative="1" as="geometry">
            <mxPoint x="79.19999999999999" y="440" as="sourcePoint" />
            <mxPoint x="79.19999999999999" as="targetPoint" />
          </mxGeometry>
        </mxCell>
        <mxCell id="3B7Y6es03bZ_iijwkZP5-30" value="" style="endArrow=none;html=1;rounded=0;" parent="3B7Y6es03bZ_iijwkZP5-17" edge="1">
          <mxGeometry width="50" height="50" relative="1" as="geometry">
            <mxPoint x="120" y="440" as="sourcePoint" />
            <mxPoint x="120" as="targetPoint" />
          </mxGeometry>
        </mxCell>
        <mxCell id="3B7Y6es03bZ_iijwkZP5-31" value="" style="endArrow=none;html=1;rounded=0;" parent="3B7Y6es03bZ_iijwkZP5-17" edge="1">
          <mxGeometry width="50" height="50" relative="1" as="geometry">
            <mxPoint x="159.20000000000005" y="440" as="sourcePoint" />
            <mxPoint x="159.20000000000005" as="targetPoint" />
          </mxGeometry>
        </mxCell>
        <mxCell id="3B7Y6es03bZ_iijwkZP5-32" value="" style="endArrow=none;html=1;rounded=0;" parent="3B7Y6es03bZ_iijwkZP5-17" edge="1">
          <mxGeometry width="50" height="50" relative="1" as="geometry">
            <mxPoint x="200" y="440" as="sourcePoint" />
            <mxPoint x="200" as="targetPoint" />
          </mxGeometry>
        </mxCell>
        <mxCell id="3B7Y6es03bZ_iijwkZP5-33" value="" style="endArrow=none;html=1;rounded=0;" parent="3B7Y6es03bZ_iijwkZP5-17" edge="1">
          <mxGeometry width="50" height="50" relative="1" as="geometry">
            <mxPoint x="239.20000000000005" y="440" as="sourcePoint" />
            <mxPoint x="239.20000000000005" as="targetPoint" />
          </mxGeometry>
        </mxCell>
        <mxCell id="3B7Y6es03bZ_iijwkZP5-34" value="" style="endArrow=none;html=1;rounded=0;" parent="3B7Y6es03bZ_iijwkZP5-17" edge="1">
          <mxGeometry width="50" height="50" relative="1" as="geometry">
            <mxPoint x="280" y="440" as="sourcePoint" />
            <mxPoint x="280" as="targetPoint" />
          </mxGeometry>
        </mxCell>
        <mxCell id="3B7Y6es03bZ_iijwkZP5-35" value="" style="endArrow=none;html=1;rounded=0;" parent="3B7Y6es03bZ_iijwkZP5-17" edge="1">
          <mxGeometry width="50" height="50" relative="1" as="geometry">
            <mxPoint x="319.20000000000005" y="440" as="sourcePoint" />
            <mxPoint x="319.20000000000005" as="targetPoint" />
          </mxGeometry>
        </mxCell>
        <mxCell id="3B7Y6es03bZ_iijwkZP5-36" value="" style="endArrow=none;html=1;rounded=0;" parent="3B7Y6es03bZ_iijwkZP5-17" edge="1">
          <mxGeometry width="50" height="50" relative="1" as="geometry">
            <mxPoint x="360" y="440" as="sourcePoint" />
            <mxPoint x="360" as="targetPoint" />
          </mxGeometry>
        </mxCell>
        <mxCell id="3B7Y6es03bZ_iijwkZP5-37" value="" style="endArrow=none;html=1;rounded=0;" parent="3B7Y6es03bZ_iijwkZP5-17" edge="1">
          <mxGeometry width="50" height="50" relative="1" as="geometry">
            <mxPoint x="399.20000000000005" y="440" as="sourcePoint" />
            <mxPoint x="399.20000000000005" as="targetPoint" />
          </mxGeometry>
        </mxCell>
        <mxCell id="3B7Y6es03bZ_iijwkZP5-38" value="" style="endArrow=none;html=1;rounded=0;" parent="3B7Y6es03bZ_iijwkZP5-17" edge="1">
          <mxGeometry width="50" height="50" relative="1" as="geometry">
            <mxPoint x="440" y="440" as="sourcePoint" />
            <mxPoint x="440" as="targetPoint" />
          </mxGeometry>
        </mxCell>
        <mxCell id="3B7Y6es03bZ_iijwkZP5-39" value="" style="endArrow=none;html=1;rounded=0;" parent="3B7Y6es03bZ_iijwkZP5-17" edge="1">
          <mxGeometry width="50" height="50" relative="1" as="geometry">
            <mxPoint x="479.20000000000005" y="440" as="sourcePoint" />
            <mxPoint x="479.20000000000005" as="targetPoint" />
          </mxGeometry>
        </mxCell>
        <mxCell id="3B7Y6es03bZ_iijwkZP5-40" value="" style="endArrow=none;html=1;rounded=0;startArrow=none;" parent="3B7Y6es03bZ_iijwkZP5-17" source="3B7Y6es03bZ_iijwkZP5-52" edge="1">
          <mxGeometry width="50" height="50" relative="1" as="geometry">
            <mxPoint x="520" y="440" as="sourcePoint" />
            <mxPoint x="520" as="targetPoint" />
          </mxGeometry>
        </mxCell>
        <mxCell id="3B7Y6es03bZ_iijwkZP5-41" value="" style="endArrow=none;html=1;rounded=0;" parent="3B7Y6es03bZ_iijwkZP5-17" edge="1">
          <mxGeometry width="50" height="50" relative="1" as="geometry">
            <mxPoint x="559.2" y="440" as="sourcePoint" />
            <mxPoint x="559.2" as="targetPoint" />
          </mxGeometry>
        </mxCell>
        <mxCell id="3B7Y6es03bZ_iijwkZP5-42" value="" style="endArrow=none;html=1;rounded=0;" parent="3B7Y6es03bZ_iijwkZP5-17" edge="1">
          <mxGeometry width="50" height="50" relative="1" as="geometry">
            <mxPoint y="399.20000000000005" as="sourcePoint" />
            <mxPoint x="600" y="399.20000000000005" as="targetPoint" />
          </mxGeometry>
        </mxCell>
        <mxCell id="3B7Y6es03bZ_iijwkZP5-43" value="" style="group" parent="3B7Y6es03bZ_iijwkZP5-17" vertex="1" connectable="0">
          <mxGeometry x="320" y="240" width="280" height="160" as="geometry" />
        </mxCell>
        <mxCell id="3B7Y6es03bZ_iijwkZP5-44" value="" style="endArrow=none;html=1;rounded=0;fontSize=18;strokeWidth=4;strokeColor=#3333FF;" parent="3B7Y6es03bZ_iijwkZP5-43" edge="1">
          <mxGeometry width="50" height="50" relative="1" as="geometry">
            <mxPoint x="120" as="sourcePoint" />
            <mxPoint x="280" as="targetPoint" />
          </mxGeometry>
        </mxCell>
        <mxCell id="3B7Y6es03bZ_iijwkZP5-45" value="" style="endArrow=none;html=1;rounded=0;fontSize=18;strokeWidth=4;strokeColor=#3333FF;" parent="3B7Y6es03bZ_iijwkZP5-43" edge="1">
          <mxGeometry width="50" height="50" relative="1" as="geometry">
            <mxPoint x="280" y="160" as="sourcePoint" />
            <mxPoint x="280" as="targetPoint" />
          </mxGeometry>
        </mxCell>
        <mxCell id="3B7Y6es03bZ_iijwkZP5-46" value="" style="endArrow=none;html=1;rounded=0;fontSize=18;strokeWidth=4;strokeColor=#3333FF;" parent="3B7Y6es03bZ_iijwkZP5-43" edge="1">
          <mxGeometry width="50" height="50" relative="1" as="geometry">
            <mxPoint x="120" y="40" as="sourcePoint" />
            <mxPoint x="120" as="targetPoint" />
          </mxGeometry>
        </mxCell>
        <mxCell id="3B7Y6es03bZ_iijwkZP5-47" value="" style="endArrow=none;html=1;rounded=0;fontSize=18;strokeWidth=4;strokeColor=#3333FF;" parent="3B7Y6es03bZ_iijwkZP5-43" edge="1">
          <mxGeometry width="50" height="50" relative="1" as="geometry">
            <mxPoint y="40" as="sourcePoint" />
            <mxPoint x="120" y="40" as="targetPoint" />
          </mxGeometry>
        </mxCell>
        <mxCell id="3B7Y6es03bZ_iijwkZP5-48" value="" style="endArrow=none;html=1;rounded=0;fontSize=18;strokeWidth=4;strokeColor=#3333FF;" parent="3B7Y6es03bZ_iijwkZP5-43" edge="1">
          <mxGeometry width="50" height="50" relative="1" as="geometry">
            <mxPoint y="160" as="sourcePoint" />
            <mxPoint y="40" as="targetPoint" />
          </mxGeometry>
        </mxCell>
        <mxCell id="3B7Y6es03bZ_iijwkZP5-49" value="" style="endArrow=none;html=1;rounded=0;fontSize=18;strokeWidth=4;strokeColor=#3333FF;" parent="3B7Y6es03bZ_iijwkZP5-43" edge="1">
          <mxGeometry width="50" height="50" relative="1" as="geometry">
            <mxPoint y="160" as="sourcePoint" />
            <mxPoint x="280" y="160" as="targetPoint" />
          </mxGeometry>
        </mxCell>
        <mxCell id="3B7Y6es03bZ_iijwkZP5-50" value="" style="whiteSpace=wrap;html=1;aspect=fixed;fontSize=18;strokeWidth=2;fillColor=#ffe6cc;strokeColor=#d79b00;dashed=1;" parent="3B7Y6es03bZ_iijwkZP5-43" vertex="1">
          <mxGeometry x="120" width="40" height="40" as="geometry" />
        </mxCell>
        <mxCell id="3B7Y6es03bZ_iijwkZP5-51" value="x(i,j)" style="text;html=1;strokeColor=none;fillColor=none;align=center;verticalAlign=middle;whiteSpace=wrap;rounded=0;dashed=1;fontSize=18;" parent="3B7Y6es03bZ_iijwkZP5-43" vertex="1">
          <mxGeometry x="120" width="40" height="40" as="geometry" />
        </mxCell>
        <mxCell id="3B7Y6es03bZ_iijwkZP5-52" value="" style="rounded=0;whiteSpace=wrap;html=1;dashed=1;fontSize=18;strokeColor=#FF0000;strokeWidth=3;fillColor=none;" parent="3B7Y6es03bZ_iijwkZP5-17" vertex="1">
          <mxGeometry x="485" y="5" width="110" height="270" as="geometry" />
        </mxCell>
        <mxCell id="3B7Y6es03bZ_iijwkZP5-53" value="" style="endArrow=none;html=1;rounded=0;" parent="3B7Y6es03bZ_iijwkZP5-17" edge="1">
          <mxGeometry width="50" height="50" relative="1" as="geometry">
            <mxPoint x="520" y="440" as="sourcePoint" />
            <mxPoint x="520" as="targetPoint" />
          </mxGeometry>
        </mxCell>
        <mxCell id="3B7Y6es03bZ_iijwkZP5-54" value="红框中一共有：512*3+508*6=&lt;font color=&quot;#ff0000&quot;&gt;4584&lt;/font&gt;个像素值未被用到" style="text;html=1;strokeColor=none;fillColor=none;align=center;verticalAlign=middle;whiteSpace=wrap;rounded=0;dashed=1;fontSize=18;" parent="3B7Y6es03bZ_iijwkZP5-17" vertex="1">
          <mxGeometry y="450" width="530" height="30" as="geometry" />
        </mxCell>
        <mxCell id="3B7Y6es03bZ_iijwkZP5-55" value="" style="group" parent="WIyWlLk6GJQsqaUBKTNV-1" vertex="1" connectable="0">
          <mxGeometry x="120" y="200" width="280" height="160" as="geometry" />
        </mxCell>
        <mxCell id="3B7Y6es03bZ_iijwkZP5-56" value="" style="endArrow=none;html=1;rounded=0;fontSize=18;strokeWidth=4;strokeColor=#3333FF;" parent="3B7Y6es03bZ_iijwkZP5-55" edge="1">
          <mxGeometry width="50" height="50" relative="1" as="geometry">
            <mxPoint x="120" as="sourcePoint" />
            <mxPoint x="280" as="targetPoint" />
          </mxGeometry>
        </mxCell>
        <mxCell id="3B7Y6es03bZ_iijwkZP5-57" value="" style="endArrow=none;html=1;rounded=0;fontSize=18;strokeWidth=4;strokeColor=#3333FF;" parent="3B7Y6es03bZ_iijwkZP5-55" edge="1">
          <mxGeometry width="50" height="50" relative="1" as="geometry">
            <mxPoint x="280" y="160" as="sourcePoint" />
            <mxPoint x="280" as="targetPoint" />
          </mxGeometry>
        </mxCell>
        <mxCell id="3B7Y6es03bZ_iijwkZP5-58" value="" style="endArrow=none;html=1;rounded=0;fontSize=18;strokeWidth=4;strokeColor=#3333FF;" parent="3B7Y6es03bZ_iijwkZP5-55" edge="1">
          <mxGeometry width="50" height="50" relative="1" as="geometry">
            <mxPoint x="120" y="40" as="sourcePoint" />
            <mxPoint x="120" as="targetPoint" />
          </mxGeometry>
        </mxCell>
        <mxCell id="3B7Y6es03bZ_iijwkZP5-59" value="" style="endArrow=none;html=1;rounded=0;fontSize=18;strokeWidth=4;strokeColor=#3333FF;" parent="3B7Y6es03bZ_iijwkZP5-55" edge="1">
          <mxGeometry width="50" height="50" relative="1" as="geometry">
            <mxPoint y="40" as="sourcePoint" />
            <mxPoint x="120" y="40" as="targetPoint" />
          </mxGeometry>
        </mxCell>
        <mxCell id="3B7Y6es03bZ_iijwkZP5-60" value="" style="endArrow=none;html=1;rounded=0;fontSize=18;strokeWidth=4;strokeColor=#3333FF;" parent="3B7Y6es03bZ_iijwkZP5-55" edge="1">
          <mxGeometry width="50" height="50" relative="1" as="geometry">
            <mxPoint y="160" as="sourcePoint" />
            <mxPoint y="40" as="targetPoint" />
          </mxGeometry>
        </mxCell>
        <mxCell id="3B7Y6es03bZ_iijwkZP5-61" value="" style="endArrow=none;html=1;rounded=0;fontSize=18;strokeWidth=4;strokeColor=#3333FF;" parent="3B7Y6es03bZ_iijwkZP5-55" edge="1">
          <mxGeometry width="50" height="50" relative="1" as="geometry">
            <mxPoint y="160" as="sourcePoint" />
            <mxPoint x="280" y="160" as="targetPoint" />
          </mxGeometry>
        </mxCell>
        <mxCell id="3B7Y6es03bZ_iijwkZP5-62" value="" style="whiteSpace=wrap;html=1;aspect=fixed;fontSize=18;strokeWidth=2;fillColor=#ffe6cc;strokeColor=#d79b00;dashed=1;" parent="3B7Y6es03bZ_iijwkZP5-55" vertex="1">
          <mxGeometry x="120" width="40" height="40" as="geometry" />
        </mxCell>
        <mxCell id="3B7Y6es03bZ_iijwkZP5-63" value="x(i,j)" style="text;html=1;strokeColor=none;fillColor=none;align=center;verticalAlign=middle;whiteSpace=wrap;rounded=0;dashed=1;fontSize=18;" parent="3B7Y6es03bZ_iijwkZP5-55" vertex="1">
          <mxGeometry x="120" width="40" height="40" as="geometry" />
        </mxCell>
        <mxCell id="3B7Y6es03bZ_iijwkZP5-64" value="" style="group" parent="WIyWlLk6GJQsqaUBKTNV-1" vertex="1" connectable="0">
          <mxGeometry x="440" y="200" width="280" height="160" as="geometry" />
        </mxCell>
        <mxCell id="3B7Y6es03bZ_iijwkZP5-65" value="" style="endArrow=none;html=1;rounded=0;fontSize=18;strokeWidth=4;strokeColor=#3333FF;" parent="3B7Y6es03bZ_iijwkZP5-64" edge="1">
          <mxGeometry width="50" height="50" relative="1" as="geometry">
            <mxPoint x="120" as="sourcePoint" />
            <mxPoint x="280" as="targetPoint" />
          </mxGeometry>
        </mxCell>
        <mxCell id="3B7Y6es03bZ_iijwkZP5-66" value="" style="endArrow=none;html=1;rounded=0;fontSize=18;strokeWidth=4;strokeColor=#3333FF;" parent="3B7Y6es03bZ_iijwkZP5-64" edge="1">
          <mxGeometry width="50" height="50" relative="1" as="geometry">
            <mxPoint x="280" y="160" as="sourcePoint" />
            <mxPoint x="280" as="targetPoint" />
          </mxGeometry>
        </mxCell>
        <mxCell id="3B7Y6es03bZ_iijwkZP5-67" value="" style="endArrow=none;html=1;rounded=0;fontSize=18;strokeWidth=4;strokeColor=#3333FF;" parent="3B7Y6es03bZ_iijwkZP5-64" edge="1">
          <mxGeometry width="50" height="50" relative="1" as="geometry">
            <mxPoint x="120" y="40" as="sourcePoint" />
            <mxPoint x="120" as="targetPoint" />
          </mxGeometry>
        </mxCell>
        <mxCell id="3B7Y6es03bZ_iijwkZP5-68" value="" style="endArrow=none;html=1;rounded=0;fontSize=18;strokeWidth=4;strokeColor=#3333FF;" parent="3B7Y6es03bZ_iijwkZP5-64" edge="1">
          <mxGeometry width="50" height="50" relative="1" as="geometry">
            <mxPoint y="40" as="sourcePoint" />
            <mxPoint x="120" y="40" as="targetPoint" />
          </mxGeometry>
        </mxCell>
        <mxCell id="3B7Y6es03bZ_iijwkZP5-69" value="" style="endArrow=none;html=1;rounded=0;fontSize=18;strokeWidth=4;strokeColor=#3333FF;" parent="3B7Y6es03bZ_iijwkZP5-64" edge="1">
          <mxGeometry width="50" height="50" relative="1" as="geometry">
            <mxPoint y="160" as="sourcePoint" />
            <mxPoint y="40" as="targetPoint" />
          </mxGeometry>
        </mxCell>
        <mxCell id="3B7Y6es03bZ_iijwkZP5-70" value="" style="endArrow=none;html=1;rounded=0;fontSize=18;strokeWidth=4;strokeColor=#3333FF;" parent="3B7Y6es03bZ_iijwkZP5-64" edge="1">
          <mxGeometry width="50" height="50" relative="1" as="geometry">
            <mxPoint y="160" as="sourcePoint" />
            <mxPoint x="280" y="160" as="targetPoint" />
          </mxGeometry>
        </mxCell>
        <mxCell id="3B7Y6es03bZ_iijwkZP5-71" value="" style="whiteSpace=wrap;html=1;aspect=fixed;fontSize=18;strokeWidth=2;fillColor=#ffe6cc;strokeColor=#d79b00;dashed=1;" parent="3B7Y6es03bZ_iijwkZP5-64" vertex="1">
          <mxGeometry x="120" width="40" height="40" as="geometry" />
        </mxCell>
        <mxCell id="3B7Y6es03bZ_iijwkZP5-72" value="x(i,j)" style="text;html=1;strokeColor=none;fillColor=none;align=center;verticalAlign=middle;whiteSpace=wrap;rounded=0;dashed=1;fontSize=18;" parent="3B7Y6es03bZ_iijwkZP5-64" vertex="1">
          <mxGeometry x="120" width="40" height="40" as="geometry" />
        </mxCell>
        <mxCell id="3B7Y6es03bZ_iijwkZP5-73" value="" style="group" parent="WIyWlLk6GJQsqaUBKTNV-1" vertex="1" connectable="0">
          <mxGeometry x="120" y="440" width="280" height="160" as="geometry" />
        </mxCell>
        <mxCell id="3B7Y6es03bZ_iijwkZP5-74" value="" style="endArrow=none;html=1;rounded=0;fontSize=18;strokeWidth=4;strokeColor=#3333FF;" parent="3B7Y6es03bZ_iijwkZP5-73" edge="1">
          <mxGeometry width="50" height="50" relative="1" as="geometry">
            <mxPoint x="120" as="sourcePoint" />
            <mxPoint x="280" as="targetPoint" />
          </mxGeometry>
        </mxCell>
        <mxCell id="3B7Y6es03bZ_iijwkZP5-75" value="" style="endArrow=none;html=1;rounded=0;fontSize=18;strokeWidth=4;strokeColor=#3333FF;" parent="3B7Y6es03bZ_iijwkZP5-73" edge="1">
          <mxGeometry width="50" height="50" relative="1" as="geometry">
            <mxPoint x="280" y="160" as="sourcePoint" />
            <mxPoint x="280" as="targetPoint" />
          </mxGeometry>
        </mxCell>
        <mxCell id="3B7Y6es03bZ_iijwkZP5-76" value="" style="endArrow=none;html=1;rounded=0;fontSize=18;strokeWidth=4;strokeColor=#3333FF;" parent="3B7Y6es03bZ_iijwkZP5-73" edge="1">
          <mxGeometry width="50" height="50" relative="1" as="geometry">
            <mxPoint x="120" y="40" as="sourcePoint" />
            <mxPoint x="120" as="targetPoint" />
          </mxGeometry>
        </mxCell>
        <mxCell id="3B7Y6es03bZ_iijwkZP5-77" value="" style="endArrow=none;html=1;rounded=0;fontSize=18;strokeWidth=4;strokeColor=#3333FF;" parent="3B7Y6es03bZ_iijwkZP5-73" edge="1">
          <mxGeometry width="50" height="50" relative="1" as="geometry">
            <mxPoint y="40" as="sourcePoint" />
            <mxPoint x="120" y="40" as="targetPoint" />
          </mxGeometry>
        </mxCell>
        <mxCell id="3B7Y6es03bZ_iijwkZP5-78" value="" style="endArrow=none;html=1;rounded=0;fontSize=18;strokeWidth=4;strokeColor=#3333FF;" parent="3B7Y6es03bZ_iijwkZP5-73" edge="1">
          <mxGeometry width="50" height="50" relative="1" as="geometry">
            <mxPoint y="160" as="sourcePoint" />
            <mxPoint y="40" as="targetPoint" />
          </mxGeometry>
        </mxCell>
        <mxCell id="3B7Y6es03bZ_iijwkZP5-79" value="" style="endArrow=none;html=1;rounded=0;fontSize=18;strokeWidth=4;strokeColor=#3333FF;" parent="3B7Y6es03bZ_iijwkZP5-73" edge="1">
          <mxGeometry width="50" height="50" relative="1" as="geometry">
            <mxPoint y="160" as="sourcePoint" />
            <mxPoint x="280" y="160" as="targetPoint" />
          </mxGeometry>
        </mxCell>
        <mxCell id="3B7Y6es03bZ_iijwkZP5-80" value="" style="whiteSpace=wrap;html=1;aspect=fixed;fontSize=18;strokeWidth=2;fillColor=#ffe6cc;strokeColor=#d79b00;dashed=1;" parent="3B7Y6es03bZ_iijwkZP5-73" vertex="1">
          <mxGeometry x="120" width="40" height="40" as="geometry" />
        </mxCell>
        <mxCell id="3B7Y6es03bZ_iijwkZP5-81" value="x(i,j)" style="text;html=1;strokeColor=none;fillColor=none;align=center;verticalAlign=middle;whiteSpace=wrap;rounded=0;dashed=1;fontSize=18;" parent="3B7Y6es03bZ_iijwkZP5-73" vertex="1">
          <mxGeometry x="120" width="40" height="40" as="geometry" />
        </mxCell>
        <mxCell id="3B7Y6es03bZ_iijwkZP5-82" value="" style="rounded=0;whiteSpace=wrap;html=1;dashed=1;fontSize=18;strokeColor=#FF0000;strokeWidth=3;fillColor=none;" parent="WIyWlLk6GJQsqaUBKTNV-1" vertex="1">
          <mxGeometry x="125" y="204" width="110" height="270" as="geometry" />
        </mxCell>
      </root>
    </mxGraphModel>
  </diagram>
</mxfile>
